<svg xmlns="http://www.w3.org/2000/svg" viewBox="0 0 24 30" width="48" height="60" shape-rendering="crispEdges">
<rect x="9" y="0" width="3" height="3" fill="#3b82f6"/><rect x="12" y="0" width="3" height="3" fill="#1d4ed8"/><rect x="6" y="3" width="3" height="3" fill="#3b82f6"/><rect x="9" y="3" width="3" height="3" fill="#3b82f6"/><rect x="12" y="3" width="3" height="3" fill="#3b82f6"/><rect x="15" y="3" width="3" height="3" fill="#1d4ed8"/><rect x="3" y="6" width="3" height="3" fill="#3b82f6"/><rect x="6" y="6" width="3" height="3" fill="#fbbf24"/><rect x="9" y="6" width="3" height="3" fill="#3b82f6"/><rect x="12" y="6" width="3" height="3" fill="#3b82f6"/><rect x="15" y="6" width="3" height="3" fill="#3b82f6"/><rect x="18" y="6" width="3" height="3" fill="#1d4ed8"/><rect x="3" y="9" width="3" height="3" fill="#1d4ed8"/><rect x="6" y="9" width="3" height="3" fill="#6b7280"/><rect x="9" y="9" width="3" height="3" fill="#6b7280"/><rect x="12" y="9" width="3" height="3" fill="#6b7280"/><rect x="15" y="9" width="3" height="3" fill="#6b7280"/><rect x="18" y="9" width="3" height="3" fill="#1d4ed8"/><rect x="3" y="12" width="3" height="3" fill="#f5d0a9"/><rect x="6" y="12" width="3" height="3" fill="#1a1a2e"/><rect x="15" y="12" width="3" height="3" fill="#1a1a2e"/><rect x="18" y="12" width="3" height="3" fill="#f5d0a9"/><rect x="3" y="15" width="3" height="3" fill="#d4a574"/><rect x="6" y="15" width="3" height="3" fill="#f5d0a9"/><rect x="9" y="15" width="3" height="3" fill="#f5d0a9"/><rect x="12" y="15" width="3" height="3" fill="#f5d0a9"/><rect x="15" y="15" width="3" height="3" fill="#f5d0a9"/><rect x="18" y="15" width="3" height="3" fill="#d4a574"/><rect x="6" y="18" width="3" height="3" fill="#d4a574"/><rect x="9" y="18" width="3" height="3" fill="#c17f59"/><rect x="12" y="18" width="3" height="3" fill="#d4a574"/><rect x="15" y="18" width="3" height="3" fill="#d4a574"/><rect x="3" y="21" width="3" height="3" fill="#2563eb"/><rect x="6" y="21" width="3" height="3" fill="#1e3a5f"/><rect x="9" y="21" width="3" height="3" fill="#1e3a5f"/><rect x="12" y="21" width="3" height="3" fill="#1e3a5f"/><rect x="15" y="21" width="3" height="3" fill="#1e3a5f"/><rect x="18" y="21" width="3" height="3" fill="#2563eb"/><rect x="0" y="24" width="3" height="3" fill="#2563eb"/><rect x="3" y="24" width="3" height="3" fill="#1e3a5f"/><rect x="6" y="24" width="3" height="3" fill="#1e3a5f"/><rect x="9" y="24" width="3" height="3" fill="#1e3a5f"/><rect x="12" y="24" width="3" height="3" fill="#1e3a5f"/><rect x="15" y="24" width="3" height="3" fill="#1e3a5f"/><rect x="18" y="24" width="3" height="3" fill="#1e3a5f"/><rect x="21" y="24" width="3" height="3" fill="#2563eb"/><rect x="0" y="27" width="3" height="3" fill="#2563eb"/><rect x="3" y="27" width="3" height="3" fill="#2563eb"/><rect x="9" y="27" width="3" height="3" fill="#2563eb"/><rect x="12" y="27" width="3" height="3" fill="#2563eb"/><rect x="18" y="27" width="3" height="3" fill="#2563eb"/><rect x="21" y="27" width="3" height="3" fill="#2563eb"/>
</svg>