<svg xmlns="http://www.w3.org/2000/svg" viewBox="0 0 64 64" width="64" height="64">
  <path d="M32 4C16.536 4 4 16.536 4 32c0 12.37 8.02 22.86 19.14 26.56 1.4.26 1.91-.6 1.91-1.34 0-.66-.02-2.42-.04-4.76-7.78 1.69-9.42-3.75-9.42-3.75-1.27-3.23-3.1-4.1-3.1-4.1-2.54-1.73.19-1.7.19-1.7 2.8.2 4.28 2.88 4.28 2.88 2.49 4.27 6.54 3.03 8.13 2.32.25-1.8.97-3.03 1.77-3.73-6.21-.71-12.74-3.1-12.74-13.8 0-3.05 1.09-5.54 2.87-7.5-.29-.7-1.24-3.55.27-7.4 0 0 2.34-.75 7.67 2.87a26.7 26.7 0 0 1 7-.94c2.38.01 4.77.32 7 .94 5.33-3.62 7.67-2.87 7.67-2.87 1.52 3.85.56 6.7.28 7.4 1.79 1.96 2.87 4.45 2.87 7.5 0 10.73-6.54 13.09-12.77 13.78 1 .87 1.9 2.58 1.9 5.2 0 3.75-.04 6.78-.04 7.7 0 .75.5 1.62 1.93 1.34C51.98 54.86 60 44.37 60 32 60 16.536 47.464 4 32 4z" fill="#fff"/>
</svg>
